<mxfile host="app.diagrams.net" modified="2024-03-29T05:50:14.748Z" agent="Mozilla/5.0 (Macintosh; Intel Mac OS X 10_15_7) AppleWebKit/537.36 (KHTML, like Gecko) Chrome/123.0.0.0 Safari/537.36" version="24.0.6" etag="WkR0Q12UTu0YojwCjxiF" type="github">
  <diagram name="第 1 页" id="0W0g8VJ_V9XkpO7iRdRY">
    <mxGraphModel>
      <root>
        <mxCell id="0" />
        <mxCell id="1" parent="0" />
      </root>
    </mxGraphModel>
  </diagram>
</mxfile>
